<?xml version="1.0" standalone="no"?>
<!DOCTYPE svg PUBLIC "-//W3C//DTD SVG 20010904//EN"
 "http://www.w3.org/TR/2001/REC-SVG-20010904/DTD/svg10.dtd">
<svg version="1.0" xmlns="http://www.w3.org/2000/svg"
 width="840.000000pt" height="1038.000000pt" viewBox="0 0 840.000000 1038.000000"
 preserveAspectRatio="xMidYMid meet">
<metadata>
Created by potrace 1.15, written by Peter Selinger 2001-2017
</metadata>
<g transform="translate(0.000000,1038.000000) scale(0.100000,-0.100000)"
fill="#000000" stroke="none">
<path d="M5665 9924 c-360 -188 -578 -661 -587 -1274 -2 -139 2 -153 50 -165
15 -3 37 -16 50 -27 24 -23 30 -58 10 -58 -7 0 -2 -9 11 -19 27 -21 22 -26
-34 -35 -56 -10 -105 -26 -105 -35 0 -4 35 -16 78 -26 42 -10 83 -22 91 -26
18 -9 7 -12 -131 -35 -60 -10 -108 -21 -108 -25 0 -13 55 -30 162 -49 61 -11
113 -20 114 -20 1 0 5 -17 9 -39 5 -30 14 -42 43 -59 37 -20 137 -42 196 -42
l30 0 -33 34 c-19 20 -58 43 -92 56 -32 11 -59 23 -59 25 0 2 4 15 10 29 l10
26 172 0 173 1 -34 29 c-22 19 -50 31 -81 35 -27 4 -74 19 -107 35 l-58 28
153 1 c138 1 282 17 282 31 0 4 -58 25 -129 49 -175 57 -379 154 -475 225
l-78 58 7 46 c34 247 117 537 173 611 20 25 65 107 100 181 110 231 154 313
204 379 68 90 65 98 -17 55z"/>
<path d="M2965 9861 c-110 -63 -223 -216 -289 -393 -50 -133 -109 -422 -122
-598 -7 -95 3 -203 47 -487 16 -106 29 -197 29 -201 0 -4 -58 -16 -129 -26
-71 -9 -139 -20 -152 -24 -22 -6 -21 -7 11 -13 19 -3 62 -14 94 -23 43 -11 79
-14 129 -9 65 6 71 5 88 -18 10 -13 19 -27 19 -30 0 -3 -41 -9 -92 -13 -51 -3
-96 -10 -101 -15 -9 -9 4 -12 148 -28 66 -8 70 -10 73 -34 3 -23 -1 -27 -32
-33 -40 -8 -46 -20 -16 -36 32 -17 24 -26 -42 -50 -96 -36 -142 -60 -131 -71
6 -6 54 -15 107 -22 53 -7 97 -17 97 -22 0 -5 -66 -32 -148 -59 l-148 -50 55
-17 c30 -10 90 -20 132 -24 l78 -8 -30 -33 c-16 -19 -37 -49 -46 -67 -9 -17
-35 -52 -59 -77 -34 -36 -48 -62 -69 -133 -24 -78 -34 -96 -87 -153 -32 -35
-59 -67 -59 -71 -1 -47 -26 -159 -54 -247 -20 -59 -38 -123 -42 -142 -3 -19
-8 -34 -11 -34 -3 0 -64 16 -135 35 -378 103 -766 166 -1092 180 -72 3 -126 3
-121 0 6 -2 103 -20 217 -39 353 -61 619 -125 918 -221 96 -31 178 -60 183
-64 6 -7 2 -42 -19 -139 -4 -20 -9 -23 -29 -18 -53 13 -424 56 -626 72 -377
30 -891 23 -1289 -18 -45 -4 107 -14 250 -16 500 -7 964 -52 1456 -142 211
-39 216 -41 210 -82 -3 -18 -8 -54 -11 -79 l-6 -45 -227 -12 c-221 -12 -459
-36 -672 -68 -219 -33 -669 -131 -615 -133 11 -1 97 10 190 24 292 44 599 74
887 86 153 6 285 8 295 4 15 -5 12 -10 -17 -25 -44 -23 -164 -147 -218 -227
-22 -32 -62 -76 -88 -98 -27 -21 -128 -118 -225 -214 -245 -246 -279 -304
-373 -644 -26 -92 -65 -211 -87 -265 -92 -221 -115 -313 -140 -542 -22 -206
-17 -358 15 -495 32 -139 45 -254 46 -415 1 -192 24 -300 96 -440 18 -36 64
-131 102 -211 65 -136 117 -223 176 -294 l25 -30 -2 67 c-1 42 3 72 11 80 13
13 79 15 92 1 5 -4 10 -63 11 -130 2 -67 5 -120 7 -118 3 2 23 -5 45 -16 l40
-21 -7 24 c-4 12 -10 53 -13 90 -7 79 4 98 51 98 50 0 61 -13 62 -72 1 -100 6
-173 11 -160 2 6 17 12 33 12 l27 0 6 -172 c5 -196 23 -293 85 -483 89 -270
172 -374 337 -420 97 -28 133 -51 169 -108 93 -145 228 -211 431 -209 134 1
396 53 345 69 -8 3 -22 7 -30 10 -8 2 20 18 63 33 103 38 231 124 305 206 160
173 215 365 163 562 -10 39 -16 73 -14 76 6 6 -71 140 -122 211 -76 107 -199
208 -300 247 l-40 16 -6 83 c-6 93 -26 186 -41 195 -5 3 -20 3 -33 0 -29 -7
-40 -42 -57 -173 -10 -87 -13 -93 -34 -93 -13 0 -49 -7 -81 -15 -105 -28 -98
-37 -111 137 -12 168 -17 178 -79 178 -55 0 -68 -32 -68 -170 0 -63 3 -134 8
-157 l7 -41 -58 -32 c-31 -18 -74 -46 -95 -63 -21 -16 -41 -27 -44 -24 -3 3
-14 47 -24 97 -20 98 -33 130 -52 130 -7 0 -21 3 -33 6 -13 3 -28 -1 -37 -11
-14 -13 -16 -31 -11 -108 3 -51 12 -133 20 -184 14 -83 14 -94 0 -122 -9 -17
-20 -47 -24 -67 -7 -35 -11 -27 -59 127 -63 198 -68 236 -49 325 8 38 17 94
21 124 5 45 14 63 51 107 47 55 45 64 -7 37 -38 -19 -61 -12 -57 18 3 19 19
33 63 52 16 7 -18 26 -47 26 -20 0 -26 4 -22 14 8 22 59 36 128 36 l61 1 -23
19 c-31 26 -95 43 -154 42 -41 -1 -48 2 -48 18 0 26 22 36 136 60 123 26 134
29 134 39 0 17 -83 31 -184 31 l-107 0 7 38 c4 20 11 47 15 60 l9 23 -30 -21
c-47 -34 -124 -115 -166 -175 -20 -30 -41 -55 -45 -55 -4 0 -5 17 -3 38 4 33
26 334 55 757 10 157 13 169 145 685 74 289 134 544 134 567 0 51 66 243 127
372 43 90 53 103 241 295 280 286 366 407 333 469 -6 12 -29 45 -51 72 -22 28
-57 85 -78 127 -36 75 -38 78 -72 78 -20 0 -44 -6 -55 -14 -23 -15 -85 -32
-70 -18 6 5 38 30 73 57 79 61 69 75 -29 40 -122 -44 -139 -49 -146 -41 -4 3
6 19 23 34 16 15 40 44 54 64 13 20 46 49 72 65 44 25 48 31 44 58 -3 17 -8
60 -11 96 l-7 66 71 23 c76 24 121 52 121 76 0 15 -8 17 -52 14 -39 -2 -87 26
-94 56 -6 24 3 80 27 168 l10 37 38 -58 c186 -288 648 -257 795 54 91 191 -2
428 -208 524 -139 65 -284 63 -418 -6 -27 -13 -48 -20 -48 -14 0 16 167 345
210 413 49 77 186 208 469 449 25 20 40 37 34 37 -15 0 -123 -38 -168 -60 -81
-39 -190 -79 -197 -72 -3 4 -23 48 -43 97 -23 58 -58 118 -96 168 -112 145
-121 190 -124 612 -2 165 -8 329 -14 365 -6 36 -11 114 -11 174 0 96 4 125 36
235 20 69 47 144 60 167 24 40 29 82 16 116 -6 16 -12 15 -57 -11z m287 -2671
c190 -58 313 -246 278 -424 -41 -208 -216 -335 -447 -324 -73 3 -100 10 -155
35 -90 42 -160 109 -201 192 -29 59 -32 74 -32 156 0 77 4 98 27 147 89 191
316 284 530 218z m-591 -4991 c3 -6 11 -76 18 -157 7 -81 15 -177 18 -214 l6
-67 -34 -20 c-51 -31 -76 -28 -82 12 -31 179 -35 418 -8 451 16 19 69 16 82
-5z m348 -32 c11 -28 21 -126 24 -233 2 -93 -14 -124 -64 -124 -39 0 -54 48
-45 149 10 104 33 213 48 223 21 12 28 10 37 -15z m-714 -218 c8 -12 24 -77
55 -229 12 -58 26 -109 31 -115 5 -5 9 -21 9 -37 0 -21 -8 -31 -30 -43 -58
-30 -87 0 -115 117 -16 70 -31 277 -22 302 7 18 62 22 72 5z m620 -101 c12
-72 93 -77 124 -8 l17 39 53 -24 c127 -60 256 -196 345 -365 l29 -55 -17 -57
c-25 -88 -49 -86 -194 17 l-63 45 -121 0 c-93 0 -147 -6 -237 -26 -158 -35
-212 -61 -253 -120 -80 -115 -106 -131 -166 -100 -46 24 -129 120 -165 192
-34 67 -34 71 -21 109 7 22 14 41 14 43 0 1 9 -7 20 -18 55 -55 159 19 118 83
-8 12 -17 37 -20 56 -4 30 0 37 45 73 60 47 124 81 137 73 6 -3 10 -21 10 -40
0 -32 21 -65 41 -65 16 0 87 39 95 52 4 6 6 33 5 59 l-2 48 38 7 c21 4 65 12
98 19 33 7 61 9 62 6 1 -3 4 -23 8 -43z m451 -663 c12 -19 15 -42 12 -93 -7
-137 -121 -302 -246 -359 -50 -23 -63 -25 -156 -21 -161 8 -208 40 -210 141
-1 88 73 190 197 272 101 67 158 84 279 85 104 0 108 -1 124 -25z"/>
<path d="M3194 7036 c-69 -30 -125 -142 -109 -218 34 -158 205 -218 313 -110
37 37 62 95 62 143 0 74 -54 159 -117 185 -41 18 -109 17 -149 0z"/>
<path d="M5475 7211 c-87 -25 -167 -80 -220 -152 -157 -213 -66 -511 185 -611
43 -17 77 -22 155 -22 92 -1 105 1 167 31 118 56 204 153 234 265 80 303 -213
578 -521 489z m286 -44 c79 -38 140 -95 178 -166 80 -151 55 -317 -66 -439
-193 -194 -524 -135 -641 116 -23 49 -27 70 -27 147 0 76 4 99 26 146 45 96
116 163 218 206 49 21 69 23 156 20 84 -3 109 -7 156 -30z"/>
<path d="M5435 7042 c-100 -48 -143 -166 -96 -267 46 -99 143 -139 238 -100
76 32 116 97 116 186 0 141 -138 238 -258 181z"/>
<path d="M7655 6983 c-22 -1 -98 -8 -170 -13 -296 -24 -658 -96 -1015 -201
-226 -66 -235 -69 -249 -78 -20 -13 -4 -89 26 -119 28 -28 57 -25 113 13 69
47 281 123 565 204 262 75 423 109 750 161 110 17 202 33 204 36 5 4 -158 3
-224 -3z"/>
<path d="M4253 6860 c-73 -24 -85 -44 -20 -33 23 5 107 8 185 8 128 0 145 -2
157 -19 13 -17 86 -49 94 -40 7 6 -21 34 -35 34 -7 0 -19 6 -27 14 -52 53
-244 72 -354 36z"/>
<path d="M4082 6710 c-18 -7 -23 -16 -20 -37 3 -24 15 -34 84 -68 44 -22 107
-57 141 -77 33 -21 67 -38 74 -38 8 0 37 15 64 33 28 17 91 52 140 77 77 39
90 50 93 73 3 21 -2 29 -23 37 -37 14 -110 12 -202 -5 -57 -11 -88 -12 -113
-5 -52 15 -212 22 -238 10z"/>
<path d="M7460 6483 c-254 -7 -623 -27 -832 -43 -130 -10 -242 -18 -250 -17
-68 3 -137 -5 -154 -18 -18 -15 -18 -16 15 -44 44 -38 81 -44 199 -31 53 6
228 22 387 36 160 14 362 32 450 40 88 7 328 27 534 44 206 17 377 33 380 35
4 5 -561 3 -729 -2z"/>
<path d="M6240 6130 c-15 -54 -5 -94 26 -110 20 -11 35 -11 87 0 84 19 494 25
707 10 246 -17 613 -68 840 -116 17 -4 22 -2 15 5 -12 11 -205 69 -355 105
-345 83 -640 119 -1157 142 l-152 6 -11 -42z"/>
<path d="M4226 5250 c-71 -44 -152 -87 -180 -96 -117 -38 -206 -99 -206 -139
0 -78 149 -104 389 -69 l107 15 99 -29 c251 -74 405 -68 405 16 0 35 -67 95
-166 151 -44 25 -128 87 -189 138 -60 51 -114 93 -120 93 -5 -1 -68 -36 -139
-80z m255 -34 c60 -52 133 -106 162 -121 98 -52 177 -116 177 -145 0 -9 -9
-25 -19 -34 -39 -35 -216 -15 -398 45 -60 19 -64 20 -175 3 -205 -30 -368 -10
-368 45 0 36 120 112 215 135 24 6 163 87 260 152 11 7 23 13 28 13 4 1 57
-41 118 -93z"/>
<path d="M6270 5305 c0 -6 7 -73 15 -150 8 -77 15 -171 15 -208 0 -113 55
-251 167 -426 31 -47 61 -102 68 -122 24 -68 55 -242 55 -313 1 -60 2 -68 13
-51 18 29 14 203 -7 310 -15 76 -27 105 -76 185 -129 212 -168 312 -180 460
-10 118 -44 298 -60 314 -6 6 -10 6 -10 1z"/>
<path d="M3040 5094 c-58 -46 -144 -105 -191 -130 -95 -51 -164 -107 -174
-141 -9 -31 31 -70 81 -79 51 -10 195 9 319 42 l100 26 95 -17 c52 -9 140 -19
195 -22 116 -6 167 7 198 50 l21 27 -21 28 c-28 38 -87 76 -168 108 -38 16
-126 66 -195 111 -69 46 -132 83 -140 83 -8 -1 -62 -39 -120 -86z m248 -12
c64 -43 133 -84 152 -92 77 -29 192 -94 207 -116 51 -79 -103 -106 -356 -63
l-121 20 -72 -20 c-169 -47 -303 -62 -366 -40 -81 28 -35 90 132 179 43 22
125 79 183 126 58 46 109 84 114 84 5 0 62 -35 127 -78z"/>
<path d="M5390 5093 c-69 -42 -164 -91 -211 -110 -169 -66 -222 -120 -166
-169 15 -13 48 -26 74 -30 62 -9 228 1 331 21 83 16 85 16 200 -11 147 -33
311 -43 363 -21 85 35 43 99 -122 182 -60 30 -160 91 -223 135 -63 44 -116 80
-118 80 -2 0 -60 -34 -128 -77z m255 -33 c61 -42 146 -93 190 -114 148 -69
191 -110 155 -146 -31 -31 -175 -28 -333 7 -146 31 -152 32 -290 10 -122 -19
-272 -22 -314 -6 -29 11 -43 26 -43 46 0 22 79 71 173 108 51 19 146 69 212
109 66 41 124 72 130 69 5 -4 60 -41 120 -83z"/>
<path d="M4661 4680 c-56 -45 -134 -98 -173 -118 -89 -47 -158 -106 -158 -136
0 -13 9 -31 21 -42 33 -30 173 -25 318 11 l114 28 98 -17 c142 -23 275 -22
317 4 28 17 33 25 30 53 -4 38 -55 77 -164 122 -38 16 -115 60 -172 97 -56 38
-109 71 -116 74 -7 3 -59 -31 -115 -76z m221 -14 c62 -41 139 -84 170 -96 85
-32 152 -80 156 -111 3 -21 -3 -29 -30 -40 -44 -18 -156 -16 -293 5 l-110 18
-100 -27 c-123 -32 -251 -43 -294 -25 -68 28 -28 79 124 159 33 17 105 67 160
111 55 43 101 79 102 80 1 0 53 -33 115 -74z"/>
<path d="M3685 4665 c-55 -30 -136 -66 -181 -80 -91 -30 -138 -55 -153 -83
-16 -30 18 -67 73 -81 50 -12 189 -13 280 -2 52 7 73 3 165 -27 118 -38 261
-54 299 -33 55 29 8 99 -111 165 -34 19 -104 71 -156 115 -52 45 -100 81 -105
80 -6 0 -56 -24 -111 -54z m204 -40 c48 -42 118 -94 156 -116 82 -48 125 -86
125 -111 0 -49 -117 -44 -295 13 -88 28 -93 28 -252 22 -139 -5 -169 -4 -207
11 -24 9 -47 23 -50 31 -9 24 47 61 135 89 46 15 129 51 184 80 55 30 104 54
108 55 5 1 48 -33 96 -74z"/>
<path d="M5669 4587 c-57 -46 -142 -103 -188 -128 -77 -40 -151 -104 -151
-129 0 -6 12 -23 26 -37 25 -25 28 -25 132 -20 70 3 141 14 205 31 96 26 101
26 175 12 188 -35 302 -32 350 9 23 20 25 26 17 51 -13 35 -81 83 -167 116
-35 14 -111 56 -168 94 -58 39 -110 73 -116 77 -7 4 -57 -29 -115 -76z m216
-14 c55 -37 135 -81 178 -99 81 -34 144 -75 154 -101 3 -8 -4 -24 -16 -36 -20
-20 -31 -22 -139 -21 -64 1 -152 9 -194 17 -77 16 -77 16 -195 -14 -153 -39
-272 -44 -304 -13 -17 18 -19 25 -10 42 14 26 75 69 156 110 33 16 103 64 155
106 52 42 100 76 105 76 6 0 55 -30 110 -67z"/>
<path d="M2671 4564 c-57 -46 -138 -102 -180 -124 -125 -66 -165 -112 -137
-156 9 -13 28 -27 42 -30 47 -12 207 4 304 31 94 26 96 26 180 11 136 -24 221
-29 282 -17 142 30 107 114 -80 191 -42 18 -123 63 -179 102 -57 38 -109 71
-116 73 -7 2 -59 -34 -116 -81z m410 -113 c91 -38 156 -89 146 -115 -19 -48
-133 -58 -317 -26 -114 20 -116 20 -185 1 -172 -47 -314 -56 -347 -23 -16 16
-18 23 -9 40 14 25 74 68 156 110 33 17 104 67 159 110 l99 80 111 -73 c61
-40 145 -87 187 -104z"/>
<path d="M5738 2586 c-84 -37 -221 -123 -306 -192 -29 -24 -85 -60 -123 -80
-79 -42 -105 -72 -139 -159 -13 -33 -36 -80 -51 -105 -15 -25 -37 -76 -49
-115 -11 -38 -37 -110 -56 -160 -57 -148 -65 -187 -75 -400 -5 -110 -12 -239
-15 -286 -5 -65 -2 -100 10 -142 45 -155 189 -313 363 -401 91 -46 293 -84
293 -56 0 6 25 10 55 10 120 0 253 51 359 137 32 26 71 55 85 63 41 25 124
157 150 239 19 60 23 89 19 153 -4 68 -11 91 -46 161 -35 68 -40 84 -29 98 82
111 157 232 157 254 0 19 -31 35 -68 35 -24 0 -42 -16 -113 -100 -46 -55 -89
-100 -94 -100 -6 0 -34 24 -63 53 l-52 52 29 70 c42 103 73 217 69 250 -2 25
-9 31 -40 39 -27 7 -41 6 -53 -4 -8 -7 -40 -64 -71 -126 -30 -63 -58 -114 -62
-114 -4 0 -24 15 -45 33 l-39 32 11 80 c13 93 20 101 132 155 38 19 69 38 69
43 0 6 -33 7 -85 3 -47 -3 -85 -3 -85 1 1 16 118 63 158 63 29 0 49 7 71 26
41 34 39 44 -6 33 -21 -5 -63 -9 -93 -9 -87 0 -104 33 -46 89 28 27 45 34 93
40 60 7 97 26 143 75 l24 27 -38 -16 c-30 -13 -45 -14 -69 -6 -16 6 -41 11
-53 11 -19 0 -24 5 -24 25 0 29 25 47 103 74 56 20 106 49 107 63 0 5 -30 7
-67 7 -53 -1 -81 5 -127 25 -32 14 -69 26 -82 26 -20 0 -24 5 -24 30 0 39 -14
39 -112 -4z m-126 -586 c-3 -78 -54 -275 -78 -301 -9 -11 -30 -19 -46 -19 -61
0 -57 71 14 235 46 106 78 156 97 153 13 -3 16 -15 13 -68z m412 -116 c22 -9
20 -26 -15 -139 -40 -131 -91 -237 -130 -269 -38 -32 -40 -32 -78 0 -34 28
-40 64 -15 85 9 7 51 84 95 171 69 138 82 158 103 158 14 0 31 -3 40 -6z
m-589 -146 c0 -46 3 -54 28 -68 24 -13 30 -13 55 0 22 13 52 55 65 94 5 14 76
-27 155 -89 74 -58 77 -65 41 -95 -9 -8 -29 -48 -29 -59 0 -6 14 -26 31 -46
42 -47 76 -47 118 0 l30 35 56 -52 56 -52 -35 -32 c-41 -38 -41 -36 -21 -73
23 -46 69 -54 123 -21 l32 20 29 -46 c66 -103 68 -245 7 -369 -37 -75 -80
-135 -97 -135 -44 0 -499 385 -499 423 0 13 25 32 85 65 l50 27 -60 5 c-67 6
-151 35 -159 55 -2 7 16 28 42 46 39 28 56 34 100 34 28 0 52 3 52 7 0 19 -94
49 -171 55 -62 4 -89 11 -105 25 -19 17 -113 43 -234 65 l-45 8 81 81 c76 77
171 144 204 144 11 0 15 -12 15 -52z m888 -127 c10 -10 -79 -157 -146 -239
-30 -37 -71 -76 -91 -87 -33 -18 -39 -19 -64 -5 -35 20 -42 64 -13 79 11 6 66
64 122 129 56 64 109 123 118 130 16 13 58 9 74 -7z m-999 -443 c121 -47 136
-56 194 -114 87 -87 134 -187 140 -300 4 -75 3 -82 -21 -110 -23 -26 -31 -29
-84 -29 -136 1 -356 154 -429 298 -47 92 -50 176 -9 273 20 48 49 45 209 -18z"/>
</g>
</svg>
